# xmcd
#
# Track frame offsets: 
#        150
#        16818
#        32642
#        61200
#        83899
#        103739
#        119938
#        141527
#        157284
#        174802
#
# Disc length: 2579 seconds
#
# Revision: 0
# Processed by: cddbd v1.5.2PL0 Copyright (c) Steve Scherf et al.
# Submitted via: ExactAudioCopyFreeDBPlugin 1.0
#
DISCID=890a110a
DTITLE=Various Artist - Posi+ive Ways
DYEAR=2001
DGENRE=Christian
TTITLE0=Tara Carroll - All of My Joy
TTITLE1=John Herchert - Hallow
TTITLE2=Dan Schwartz - Dancing Inside of Me
TTITLE3=Keri Noble - Keys
TTITLE4=Pete Larson - Best Friends
TTITLE5=Brothers Frantzich - Face of God
TTITLE6=Justin Roth - Riverside
TTITLE7=Deb Marley - Little Bird
TTITLE8=Jeff Arundel - Hey Ann
TTITLE9=Jason Gay - Leaving It All Behind
EXTD=
EXTT0=
EXTT1=
EXTT2=
EXTT3=
EXTT4=
EXTT5=
EXTT6=
EXTT7=
EXTT8=
EXTT9=
PLAYORDER=
